<?xml version="1.0" encoding="iso-8859-1"?>
<!-- Generator: Adobe Illustrator 19.0.0, SVG Export Plug-In . SVG Version: 6.00 Build 0)  -->
<svg version="1.1" id="Layer_1" xmlns="http://www.w3.org/2000/svg" xmlns:xlink="http://www.w3.org/1999/xlink" x="0px" y="0px"
	 viewBox="0 0 356.645 356.645" style="enable-background:new 0 0 356.645 356.645;" xml:space="preserve">
<g>
	<g>
		<path style="fill:#D2D4D5;" d="M323.892,48.747c0-2.957-2.419-5.376-5.376-5.376h-37.379c-2.957,0-5.376,2.419-5.376,5.376v33.058
			c0,2.957,2.419,5.375,5.376,5.375h37.379c2.957,0,5.376-2.418,5.376-5.375V48.747z"/>
		<path style="fill:#3E4A57;" d="M259.136,57.033c-8.87,0-16.128,7.258-16.128,16.128v223.984c0,8.87,7.258,16.128,16.128,16.128
			h81.381c8.87,0,16.128-7.258,16.128-16.128V73.161c0-8.87-7.257-16.128-16.128-16.128
			C340.517,57.033,259.136,57.033,259.136,57.033z"/>
		<path style="fill:#FFA400;" d="M340.517,57.033h-81.381c-8.87,0-16.128,7.258-16.128,16.128v54.796h113.637V73.161
			C356.645,64.291,349.387,57.033,340.517,57.033z"/>
		<path style="fill:#FFFFFF;" d="M314.162,89.808h-11.648V78.159c0-1.485-1.203-2.688-2.688-2.688s-2.688,1.203-2.688,2.688v11.648
			H285.49c-1.484,0-2.688,1.203-2.688,2.688s1.204,2.688,2.688,2.688h11.647v11.648c0,1.484,1.203,2.688,2.688,2.688
			s2.688-1.203,2.688-2.688V95.184h11.648c1.484,0,2.688-1.203,2.688-2.688C316.85,91.011,315.646,89.808,314.162,89.808z"/>
		<g>
			<path style="fill:#FFFFFF;" d="M314.162,295.174H285.49c-1.484,0-2.688-1.203-2.688-2.688s1.204-2.688,2.688-2.688h28.672
				c1.484,0,2.688,1.203,2.688,2.688C316.85,293.971,315.646,295.174,314.162,295.174z"/>
		</g>
	</g>
	<g>
		<g>
			<path style="fill:#3E4A57;" d="M56.818,199.637C25.438,199.637,0,225.075,0,256.455c0,31.381,25.438,56.818,56.818,56.818h188.71
				c31.38,0,56.818-25.438,56.818-56.818s-25.439-56.818-56.818-56.818H56.818z"/>
		</g>
		<path style="fill:#FFA400;" d="M245.529,313.273c31.38,0,56.818-25.438,56.818-56.818s-25.439-56.818-56.818-56.818h-50.367
			c-31.38,0-56.818,25.438-56.818,56.818c0,31.381,25.438,56.818,56.818,56.818H245.529z"/>
		<circle style="fill:#5C6670;" cx="245.529" cy="256.455" r="56.818"/>
		<circle style="fill:#A4A9AD;" cx="245.529" cy="256.455" r="50.367"/>
		<g>
			<path style="fill:#D2D4D5;" d="M257.675,281.117c13.62,0,24.663-11.042,24.663-24.662s-11.043-24.664-24.663-24.664h-6.514
				c-13.622,0-24.663,11.044-24.663,24.664s11.042,24.662,24.663,24.662H257.675z"/>
			<circle style="fill:#E8E8E8;" cx="257.675" cy="256.455" r="24.663"/>
		</g>
		<path style="fill:#FFFFFF;" d="M178.354,248.947h-11.648v-11.648c0-1.484-1.204-2.688-2.688-2.688
			c-1.485,0-2.688,1.203-2.688,2.688v11.648h-11.647c-1.485,0-2.688,1.203-2.688,2.689c0,1.484,1.203,2.688,2.688,2.688h11.647
			v11.648c0,1.485,1.203,2.688,2.688,2.688c1.484,0,2.688-1.203,2.688-2.688v-11.648h11.648c1.484,0,2.688-1.203,2.688-2.688
			C181.042,250.15,179.838,248.947,178.354,248.947z"/>
		<path style="fill:#FFFFFF;" d="M46.107,254.323H17.436c-1.485,0-2.688-1.203-2.688-2.688s1.203-2.689,2.688-2.689h28.671
			c1.485,0,2.688,1.203,2.688,2.689C48.795,253.12,47.592,254.323,46.107,254.323z"/>
	</g>
</g>
<g>
</g>
<g>
</g>
<g>
</g>
<g>
</g>
<g>
</g>
<g>
</g>
<g>
</g>
<g>
</g>
<g>
</g>
<g>
</g>
<g>
</g>
<g>
</g>
<g>
</g>
<g>
</g>
<g>
</g>
</svg>
