<?xml version="1.0" encoding="iso-8859-1"?>
<!-- Generator: Adobe Illustrator 16.0.0, SVG Export Plug-In . SVG Version: 6.00 Build 0)  -->
<!DOCTYPE svg PUBLIC "-//W3C//DTD SVG 1.1//EN" "http://www.w3.org/Graphics/SVG/1.1/DTD/svg11.dtd">
<svg version="1.1" id="Capa_1" xmlns="http://www.w3.org/2000/svg" xmlns:xlink="http://www.w3.org/1999/xlink" x="0px" y="0px"
	 width="123.722px" height="123.722px" viewBox="0 0 123.722 123.722" style="enable-background:new 0 0 123.722 123.722;"
	 xml:space="preserve">
<g>
	<g>
		<path d="M84.813,24.89c0.549-0.385,1.046-0.813,1.542-1.228c0.494-0.415,0.982-0.821,1.458-1.218
			c0.473-0.404,0.952-0.78,1.391-1.181c0.433-0.409,0.854-0.808,1.265-1.199c0.816-0.786,1.619-1.511,2.324-2.235
			c0.67-0.734,1.311-1.412,1.898-2.047l11.347,6.938L100.677,0L76.907,5.69l11.046,6.145c-0.236,0.301-0.48,0.608-0.73,0.93
			c-0.582,0.702-1.252,1.405-1.934,2.172c-0.342,0.382-0.695,0.773-1.055,1.174c-0.368,0.394-0.775,0.766-1.174,1.165
			c-0.404,0.394-0.814,0.795-1.233,1.206c-0.421,0.411-0.84,0.839-1.312,1.224c-0.926,0.79-1.868,1.631-2.867,2.46
			c-1.035,0.788-2.098,1.597-3.184,2.425c-1.136,0.766-2.297,1.548-3.477,2.343c-1.229,0.721-2.457,1.5-3.745,2.216
			c-0.649,0.346-1.305,0.693-1.964,1.042c-0.657,0.352-1.318,0.708-2.007,1.013c-1.37,0.633-2.733,1.317-4.161,1.872
			c-0.71,0.292-1.419,0.586-2.13,0.879l-2.172,0.789c-2.896,1.069-5.878,1.919-8.831,2.704c-2.972,0.715-5.918,1.371-8.808,1.822
			c-2.884,0.495-5.7,0.817-8.377,1.081c-2.68,0.229-5.224,0.399-7.577,0.455c-2.353,0.075-4.515,0.068-6.431,0.024
			c-1.916-0.041-3.585-0.132-4.96-0.222c-2.75-0.188-4.307-0.41-4.307-0.41L5.453,40.56c0,0,6.209,1.39,15.746,1.846
			c2.382,0.129,4.969,0.16,7.708,0.14c2.737-0.054,5.63-0.159,8.618-0.434c2.991-0.229,6.067-0.665,9.192-1.162
			c3.109-0.57,6.272-1.212,9.383-2.089l2.337-0.649c0.77-0.25,1.539-0.498,2.307-0.747c1.547-0.47,3.042-1.073,4.543-1.631
			c0.756-0.268,1.488-0.587,2.215-0.909c0.73-0.317,1.455-0.632,2.178-0.945c1.433-0.655,2.812-1.382,4.192-2.06
			c1.345-0.74,2.654-1.5,3.944-2.23c1.249-0.806,2.469-1.594,3.656-2.362C82.634,26.513,83.733,25.678,84.813,24.89z"/>
		<circle cx="98.312" cy="36.308" r="10.075"/>
		<path d="M105.013,48.835c-0.151-0.093-0.312-0.156-0.469-0.226c-1.136-0.756-2.416-1.322-3.724-1.642l-2.51,2.527l-2.435-2.555
			c-0.008,0.001-0.017,0.001-0.025,0.003c-1.312,0.314-2.596,0.876-3.738,1.643c-0.174,0.074-0.35,0.147-0.516,0.249
			c-4.15,2.546-13.696,12.112-13.242,17.688c0.271,3.322,4.002,9.557,6.203,12.978c0.748,1.161,2.007,1.794,3.293,1.794
			c0.228,0,0.453-0.025,0.678-0.066c-0.006,0.096-0.016,0.194-0.016,0.293l0.004,37.455c0,2.553,2.07,4.622,4.623,4.622
			s4.623-2.069,4.623-4.624l-0.002-32.145c0.183,0.009,0.365,0.023,0.55,0.023c0.036,0,0.073-0.004,0.108-0.005l-0.002,32.126
			c0,2.553,2.07,4.624,4.623,4.624l0,0c2.553,0,4.622-2.069,4.622-4.624l0.001-37.369c0.071-0.138,0.139-0.281,0.201-0.424
			c0.295,0.07,0.594,0.112,0.893,0.112c1.287,0,2.545-0.634,3.293-1.794c2.201-3.42,5.933-9.655,6.203-12.979
			C118.71,60.947,109.164,51.381,105.013,48.835z M88,69.949c-0.919-1.705-1.594-3.131-1.796-3.85
			c0.234-0.682,0.892-1.755,1.796-2.976V69.949z M98.335,69.434h-0.047l-2.429-3.324l2.429-16.243h0.047l2.43,16.243L98.335,69.434z
			 M108.625,69.924v-6.783c0.893,1.205,1.543,2.266,1.779,2.946C110.189,66.836,109.524,68.249,108.625,69.924z"/>
		<circle cx="60.491" cy="50.947" r="8.399"/>
		<path d="M66.077,61.393c-0.126-0.078-0.259-0.13-0.39-0.188c-0.947-0.63-2.016-1.103-3.104-1.37l-2.094,2.107l-2.029-2.129
			c-0.006,0.001-0.013,0.002-0.021,0.003c-1.093,0.261-2.165,0.731-3.116,1.369c-0.146,0.063-0.292,0.123-0.43,0.208
			c-3.461,2.123-11.418,10.097-11.041,14.744c0.227,2.771,3.337,7.969,5.172,10.82c0.623,0.969,1.673,1.496,2.746,1.496
			c0.188,0,0.376-0.021,0.564-0.055c-0.005,0.082-0.013,0.162-0.013,0.244l0.002,31.225c0,2.132,1.726,3.855,3.854,3.854
			c2.128,0,3.854-1.725,3.854-3.854L60.03,93.07c0.153,0.006,0.305,0.02,0.458,0.02c0.03,0,0.061-0.004,0.091-0.004l-0.001,26.781
			c0,2.129,1.725,3.854,3.854,3.854l0,0c2.129,0,3.854-1.726,3.854-3.854l0.001-31.153c0.061-0.116,0.114-0.233,0.168-0.354
			c0.246,0.059,0.495,0.094,0.744,0.094c1.071,0,2.122-0.526,2.745-1.496c1.835-2.852,4.946-8.049,5.172-10.82
			C77.496,71.488,69.539,63.516,66.077,61.393z M51.894,78.996c-0.767-1.422-1.329-2.611-1.498-3.211
			c0.195-0.568,0.743-1.461,1.498-2.479V78.996z M60.51,78.566h-0.039l-2.026-2.772l2.026-13.54h0.039l2.026,13.54L60.51,78.566z
			 M69.087,78.975V73.32c0.744,1.004,1.287,1.889,1.484,2.455C70.392,76.4,69.837,77.578,69.087,78.975z"/>
		<circle cx="24.952" cy="68.994" r="6.317"/>
		<path d="M29.153,76.848c-0.094-0.058-0.194-0.098-0.293-0.141c-0.711-0.475-1.515-0.83-2.333-1.03l-1.575,1.583l-1.526-1.6
			c-0.005,0.002-0.01,0.002-0.015,0.002c-0.823,0.197-1.628,0.55-2.344,1.029c-0.109,0.047-0.219,0.094-0.323,0.156
			c-2.603,1.598-8.587,7.594-8.302,11.088c0.17,2.084,2.509,5.993,3.889,8.137c0.468,0.729,1.258,1.125,2.065,1.125
			c0.141,0,0.283-0.017,0.424-0.041c-0.004,0.062-0.009,0.121-0.009,0.184l0.001,23.482c0,1.602,1.298,2.898,2.898,2.897
			c1.601,0,2.898-1.298,2.898-2.897l-0.002-20.153c0.115,0.005,0.229,0.015,0.345,0.015c0.023,0,0.046-0.003,0.068-0.003v20.142
			c0,1.601,1.297,2.897,2.897,2.897l0,0c1.6,0,2.898-1.298,2.898-2.897l0.001-23.428c0.044-0.088,0.085-0.177,0.126-0.267
			c0.185,0.044,0.373,0.069,0.56,0.069c0.806,0,1.596-0.396,2.064-1.125c1.38-2.144,3.719-6.051,3.89-8.137
			C37.74,84.441,31.755,78.445,29.153,76.848z M18.487,90.087c-0.577-1.069-1-1.964-1.126-2.413
			c0.147-0.428,0.559-1.102,1.126-1.865V90.087z M24.967,89.763h-0.03l-1.522-2.083l1.522-10.183h0.03L26.49,87.68L24.967,89.763z
			 M31.417,90.07v-4.252c0.559,0.754,0.968,1.42,1.116,1.846C32.398,88.135,31.981,89.02,31.417,90.07z"/>
	</g>
</g>
<g>
</g>
<g>
</g>
<g>
</g>
<g>
</g>
<g>
</g>
<g>
</g>
<g>
</g>
<g>
</g>
<g>
</g>
<g>
</g>
<g>
</g>
<g>
</g>
<g>
</g>
<g>
</g>
<g>
</g>
</svg>
