<?xml version="1.0" encoding="iso-8859-1"?>
<!-- Generator: Adobe Illustrator 17.1.0, SVG Export Plug-In . SVG Version: 6.00 Build 0)  -->
<!DOCTYPE svg PUBLIC "-//W3C//DTD SVG 1.1//EN" "http://www.w3.org/Graphics/SVG/1.1/DTD/svg11.dtd">
<svg version="1.1" id="Capa_1" xmlns="http://www.w3.org/2000/svg" xmlns:xlink="http://www.w3.org/1999/xlink" x="0px" y="0px"
	 viewBox="0 0 216.503 216.503" style="enable-background:new 0 0 216.503 216.503;" xml:space="preserve">
<path d="M215.932,27.911c-1.16-2.803-3.896-4.63-6.929-4.63H106.607c-1.982,0-3.884,0.784-5.289,2.183L2.211,124.039
	c-2.153,2.142-2.803,5.371-1.644,8.178c1.158,2.808,3.896,4.64,6.933,4.64h66.879v48.865c0,4.143,3.357,7.5,7.5,7.5h76.275h11.071
	c4.143,0,7.5-3.357,7.5-7.5V73.666l7.319-7.318c0.003-0.003,0.007-0.007,0.01-0.011l30.252-30.252
	C216.451,33.94,217.093,30.714,215.932,27.911z M109.701,38.281h25.783l-15.258,15.258H94.361L109.701,38.281z M152.851,76.327
	l-13.067,13.067h-34.198l20.856-20.855h34.198L152.851,76.327z M73.123,121.857l17.462-17.462h34.198l-17.462,17.462H73.123z
	 M84.371,89.395H58.313l20.968-20.855h25.946L84.371,89.395z M43.232,104.395h26.139l-17.462,17.462H25.676L43.232,104.395z
	 M175.639,53.539h-34.198L156.7,38.281h34.197L175.639,53.539z"/>
<g>
</g>
<g>
</g>
<g>
</g>
<g>
</g>
<g>
</g>
<g>
</g>
<g>
</g>
<g>
</g>
<g>
</g>
<g>
</g>
<g>
</g>
<g>
</g>
<g>
</g>
<g>
</g>
<g>
</g>
</svg>
