<?xml version="1.0" encoding="utf-8"?>
<!-- Generator: Adobe Illustrator 16.0.0, SVG Export Plug-In . SVG Version: 6.00 Build 0)  -->
<!DOCTYPE svg PUBLIC "-//W3C//DTD SVG 1.1//EN" "http://www.w3.org/Graphics/SVG/1.1/DTD/svg11.dtd">
<svg version="1.1" id="Layer_1" xmlns="http://www.w3.org/2000/svg" xmlns:xlink="http://www.w3.org/1999/xlink" x="0px" y="0px"
	 width="600px" height="600px" viewBox="0 0 600 600" enable-background="new 0 0 600 600" xml:space="preserve">
<circle fill="#45AED6" cx="299" cy="300" r="288"/>
<g>
	<polygon fill="#FFFFFF" points="523.5,300 476.431,340.291 501.404,397.004 441.471,412.799 439.363,474.738 378.506,463.061 
		349.727,517.943 300,480.929 250.272,517.943 221.494,463.061 160.637,474.738 158.528,412.799 98.597,397.003 123.569,340.292 
		76.5,300 123.569,259.709 98.597,202.996 158.529,187.2 160.637,125.261 221.494,136.939 250.272,82.056 300,119.071 
		349.726,82.056 378.506,136.939 439.363,125.261 441.473,187.2 501.404,202.997 476.431,259.708 	"/>
	<circle fill="#FFFFFF" cx="300" cy="300" r="149"/>
</g>
<circle fill="none" stroke="#45AED6" stroke-width="5" stroke-miterlimit="10" cx="300" cy="300" r="148.362"/>
</svg>
