<?xml version="1.0" encoding="utf-8"?>
<!-- Generator: Adobe Illustrator 16.0.0, SVG Export Plug-In . SVG Version: 6.00 Build 0)  -->
<!DOCTYPE svg PUBLIC "-//W3C//DTD SVG 1.1//EN" "http://www.w3.org/Graphics/SVG/1.1/DTD/svg11.dtd">
<svg version="1.1" id="Capa_1" xmlns="http://www.w3.org/2000/svg" xmlns:xlink="http://www.w3.org/1999/xlink" x="0px" y="0px"
	 width="600px" height="600px" viewBox="0 0 600 600" enable-background="new 0 0 600 600" xml:space="preserve">
<circle fill="#45AED6" cx="300" cy="300" r="288"/>
<g opacity="0.8">
	<path fill="#FFFFFF" d="M167.858,222.778l-20.792-6.322c6.877-7.354,14.305-14.614,22.21-21.636l75.973,13.955l-65.659-22.698
		c9.227-7.457,19.076-14.459,29.551-20.782l74.696,18.734l-62.024-25.899c27.174-14.237,58.149-23.577,92.898-23.857
		c-2.243,15.586-9.82,53.956-32.203,85.023h18.645c25.775-40.214,29.714-87.162,29.929-90.032c0.012-0.142-0.075-0.281-0.093-0.413
		c1.021-2.755-0.518-5.949-4.003-7.543c-119.579-54.88-182.194-25.604-208.887-3.258c-40.961,34.295-48.086,91.707-26.862,118.234
		c0.529,0.654,1.169,1.23,1.887,1.699c2.583,1.679,6.133,2.093,8.896,0.855c3.551-1.606,4.473-5.335,2.078-8.348
		c-15.804-19.742-11.919-71.884,25.802-103.451c27.013-22.604,77.833-40.509,168.834-4.434
		c-31.186,2.227-59.209,10.883-84.095,23.431l1.247-31.246l-16.985,39.866c-11.027,6.604-21.371,13.888-31.015,21.649l-4.841-51.233
		l-9.53,61.881c-0.054,0.371-0.074,0.792-0.038,1.188c0.012,0.158,0.118,0.291,0.154,0.445
		c-6.068,5.518-11.832,11.159-17.266,16.871l-9.892-38.291l-1.661,50.952c-38.183,44.036-57.916,87.353-59.571,91.091
		c-1.125,2.509,0.114,5.422,2.821,7.181c0.602,0.404,1.293,0.743,2.039,1.003c4.077,1.439,8.474,0.093,9.851-3.004
		c0.405-0.896,20.287-44.601,58.803-88.73l22.852,2.642v-4.231L167.858,222.778z"/>
	<path fill="#FFFFFF" d="M132.533,252.733c-4.065-1.423-8.454-0.044-9.82,3.058c-1.349,3.089,0.848,6.748,4.936,8.164
		c11.727,4.075,23.059,7.169,33.958,9.31v-12.469C152.264,258.876,142.59,256.225,132.533,252.733z"/>
	<path fill="#FFFFFF" d="M397.857,218.314c2.546-3.479,2.501-8.08-0.077-10.277c-2.566-2.202-6.699-1.165-9.253,2.34
		c-2.576,3.536-4.974,7.053-7.285,10.558c4.038,1.283,7.888,2.905,11.521,4.852C394.458,223.298,396.031,220.822,397.857,218.314z"
		/>
	<path fill="#FFFFFF" d="M425.605,183.593c-0.782,0.319-1.521,0.764-2.178,1.318c-2.358,1.975-3.793,5.258-3.408,8.255
		c0.5,3.866,3.815,5.834,7.39,4.415c23.489-9.373,72.231,9.516,91.468,54.787c13.765,32.418,16.103,86.247-44.884,162.826
		c6.942-30.495,6.813-59.823,2.046-87.282l29.532,10.283l-33.191-27.846c-3.116-12.477-7.081-24.489-11.691-35.978l50.424,10.281
		l-56.438-27.12c-0.327-0.169-0.732-0.313-1.118-0.382c-0.152-0.036-0.314,0.028-0.473,0.017c-3.506-7.411-7.229-14.57-11.115-21.43
		l39.507,1.678l-48.257-16.418c-31.02-49.349-66.724-80.815-69.805-83.488c-2.077-1.806-5.233-1.469-7.697,0.607
		c-0.558,0.461-1.087,1.027-1.556,1.667c-2.555,3.471-2.555,8.076,0.018,10.294c0.738,0.649,36.756,32.388,67.771,82.08
		l-6.177,14.19c1.772,2.517,3.391,5.176,4.836,7.962l7.726-11.529c5.038,8.715,9.811,17.931,14.236,27.548l-12.733,24.651
		c-0.046,4.9-0.423,9.617-1.071,14.164l19.164-26.407c4.453,10.992,8.284,22.453,11.298,34.324l-39.669,65.999l42.83-51.791
		c5.715,30.146,5.642,62.489-4.211,95.816c-14.707-6.902-50.99-26.309-74.158-58.545c-4.903,1.843-10.128,3.17-15.64,3.961
		c29.946,47.88,86.773,70.506,89.84,71.688c0.136,0.06,0.288,0.015,0.425,0.052c2.346,1.766,5.848,1.218,8.379-1.643
		c87.296-98.433,77.503-166.865,63.896-198.904C510.013,194.523,457.156,171.014,425.605,183.593z"/>
	<path fill="#FFFFFF" d="M309.514,371.54h-4.876c7.367,15.446,12.786,33.58,16.085,54.511c0.671,4.246,3.939,7.47,7.322,7.208
		c3.361-0.253,5.549-3.907,4.887-8.202c-4.082-25.899-11.179-48.076-21.066-66.606c-0.786-0.625-1.596-1.218-2.352-1.875V371.54
		L309.514,371.54z"/>
	<path fill="#FFFFFF" d="M239.775,415.898c-10.926-4.627-21.747-10.019-32.267-16.287l-6.718-26.987
		c-2.49-0.04-4.974-0.1-7.399-0.212l1.833,19.384c-9.472-6.45-18.597-13.705-27.167-21.845l-6.445-0.814v-5.668
		c-11.754-12.205-22.354-26.2-31.163-42.39c6.576-2.378,17.625-5.93,31.163-8.723v-16.183
		c-24.306,4.648-41.647,12.104-43.272,12.828c-0.142,0.053-0.216,0.191-0.33,0.269c-2.899,0.4-5.001,3.261-4.767,7.072
		c7.878,131.353,63.187,172.806,95.459,185.827c49.544,20.003,103.551-0.756,116.951-31.957c0.334-0.769,0.53-1.599,0.622-2.467
		c0.274-3.063-1.053-6.39-3.443-8.239c-3.074-2.387-6.812-1.429-8.336,2.091c-9.982,23.233-57.81,44.349-103.411,25.945
		c-32.676-13.187-72.382-49.596-83.402-146.868c16.652,26.466,37.483,47.119,60.263,63.165l-28.158,13.613l43.168-3.791
		c11.026,6.627,22.322,12.316,33.705,17.186l-42.923,28.386l59.084-20.724c0.35-0.122,0.737-0.297,1.059-0.527
		c0.133-0.077,0.198-0.243,0.32-0.336c7.718,2.754,15.416,5.178,23.013,7.285l-29.126,26.758l45.74-22.523
		c56.825,12.977,104.326,9.963,108.4,9.671c2.744-0.188,4.731-2.657,5.009-5.867c0.085-0.715,0.046-1.485-0.07-2.28
		c-0.649-4.257-3.913-7.503-7.294-7.266c-0.98,0.072-48.903,3.104-105.967-10.112l-22.967-58.361l10.936,55.37
		c-9.72-2.604-19.615-5.744-29.542-9.416l-16.388-51.418c-1.125,0.283-2.236,0.575-3.414,0.82L239.775,415.898z"/>
	<path fill="#FFFFFF" d="M245.415,291.801v-0.348c12.727-4.711,19.53-14.671,19.53-25.5c0-9.951-4.865-17.643-12.209-22.003
		c-8.02-5.584-17.804-7.511-33.704-7.511c-12.05,0-24.454,1.054-31.26,2.45V354.68c5.422,0.683,14.485,1.564,26.361,1.564
		c21.502,0,35.288-3.665,43.686-11.003c6.81-5.589,11.341-13.791,11.341-24.275C269.156,304.722,257.815,294.947,245.415,291.801z
		 M209.082,253.208c2.257-0.523,5.936-0.874,12.22-0.874c13.625,0,22.005,5.075,22.005,16.07c0,9.954-8.38,16.947-23.229,16.947
		h-11.001v-32.144H209.082z M220.43,340.007c-4.885,0-8.549-0.182-11.349-0.522v-38.427h10.651c14.849,0,26.711,5.59,26.711,19.209
		C246.439,334.764,234.227,340.007,220.43,340.007z"/>
	<rect x="279.677" y="237.32" fill="#FFFFFF" width="21.493" height="117.714"/>
	<path fill="#FFFFFF" d="M366.848,235.398c-33.182,0-55.881,25.495-55.881,61.649c0,34.578,20.944,59.902,54.127,59.902
		c32.502,0,56.417-22.521,56.417-62.001C421.507,261.414,401.252,235.398,366.848,235.398z M366.313,339.65
		c-20.597,0-32.653-19.034-32.653-42.953c0-24.269,11.366-44.015,32.653-44.015c21.485,0,32.496,20.958,32.496,43.138
		C398.809,320.448,387.118,339.65,366.313,339.65z"/>
</g>
</svg>
