<?xml version="1.0" encoding="utf-8"?>
<!-- Generator: Adobe Illustrator 16.0.0, SVG Export Plug-In . SVG Version: 6.00 Build 0)  -->
<!DOCTYPE svg PUBLIC "-//W3C//DTD SVG 1.1//EN" "http://www.w3.org/Graphics/SVG/1.1/DTD/svg11.dtd">
<svg version="1.1" id="Capa_1" xmlns="http://www.w3.org/2000/svg" xmlns:xlink="http://www.w3.org/1999/xlink" x="0px" y="0px"
	 width="600px" height="600px" viewBox="0 0 600 600" enable-background="new 0 0 600 600" xml:space="preserve">
<circle fill="#45AED6" cx="300" cy="300" r="288"/>
<path fill="#FFFFFF" d="M392.385,269.327c-0.622-2.069-2.26-3.681-4.341-4.265l-80.572-22.99L354.34,79.496
	c0.838-2.869-0.47-5.954-3.11-7.363c-2.641-1.384-5.916-0.787-7.846,1.511L180.833,266.75c-1.396,1.65-1.841,3.897-1.218,5.954
	c0.634,2.056,2.272,3.656,4.341,4.24l80.139,22.863l-66.303,182.278c-1.053,2.895,0.115,6.106,2.768,7.655
	c0.991,0.584,2.095,0.862,3.199,0.862c1.803,0,3.58-0.774,4.824-2.208l182.545-213.101
	C392.537,273.656,393.02,271.396,392.385,269.327z M333.876,104.656l-4.171,14.466c-1.387-1.489-3.074-2.711-5.009-3.562
	L333.876,104.656z M228.196,435.6c0.93,0.949,1.997,1.811,3.231,2.534c0.788,0.462,1.624,0.833,2.484,1.137l-12.252,14.303
	L228.196,435.6z"/>
<ellipse transform="matrix(0.9285 0.3713 -0.3713 0.9285 65.2264 -114.3108)" fill="#FFFFFF" cx="329.5" cy="112.25" rx="7.75" ry="12.5"/>
<ellipse transform="matrix(0.8487 0.5289 -0.5289 0.8487 269.6087 -53.6802)" fill="#FFFFFF" cx="228.625" cy="444.375" rx="4.875" ry="18.125"/>
</svg>
