<?xml version="1.0" encoding="utf-8"?>
<!-- Generator: Adobe Illustrator 16.0.0, SVG Export Plug-In . SVG Version: 6.00 Build 0)  -->
<!DOCTYPE svg PUBLIC "-//W3C//DTD SVG 1.1//EN" "http://www.w3.org/Graphics/SVG/1.1/DTD/svg11.dtd">
<svg version="1.1" id="Capa_1" xmlns="http://www.w3.org/2000/svg" xmlns:xlink="http://www.w3.org/1999/xlink" x="0px" y="0px"
	 width="600px" height="600px" viewBox="0 0 600 600" enable-background="new 0 0 600 600" xml:space="preserve">
<circle fill="#45AED6" cx="300" cy="300" r="288"/>
<g>
	<path fill="#FFFFFF" d="M447.072,340.35c-59.301,73.805-120.85,31.889-140.886,14.736c15.497-17.531,22.541-27.092,49.443-50.061
		c27.814,11.777,77.492-10.571,77.492-10.571c-33.441,9.077-58.983,3.932-68.063,1.445c1.925-1.593,34.919-26.36,44.909-40.684
		c27.617,0.888,50.43-23.719,50.43-23.719c-0.776-0.653-14.721,10.445-41.141,11.778c27.355-41.67,26.103-80,26.103-80
		s-10.102,34.981-35.795,73.359c-5.265-27.233,1.44-45.766,0.664-46.393c0,0-17.863,30.587-9.637,58.711
		c-14.051,16.648-36.197,31.029-44.348,37.468c-0.615-1.735-9.135-30.776-0.857-73.707c0,0-22.514,53.969-8.434,81.968
		c-17.266,13.751-21.854,17.132-50.679,50.544c-65.259-50.658-9.214-141.267,39.666-162.405
		c50.259-21.741,71.227-17.373,117.273-95.586C503.653,164.739,495.401,280.175,447.072,340.35z M168.51,332.477
		c29.679,14.076,50.273,33.189,64.419,51.479c0.159-0.555,0.386-0.973,0.547-1.609c26.887-100.288-120.853-86.339-120.853-86.339
		s20.409,32.568,31.79,68.091c13.157,41.164,66.931,75.387,86.242,26.512C216.715,371.131,196.77,349.824,168.51,332.477z
		 M306.187,355.027c-0.211-0.162-10.207-9.525-10.066-9.688c-25.325,28.922-35.21,53.635-37.613,85.105
		c-3.834-10.826-11.489-28.152-25.605-46.48c-0.655,2.402-1.443,4.564-2.27,6.645c15.014,20.943,20.827,49.533,24.242,58.896
		c0,26.156,2.748,39.229,4.967,61.039c0,0,13.566,8.307,17.35-7.205C269.579,490.23,262.062,399.859,306.187,355.027z"/>
</g>
</svg>
